# xmcd CD database file
#
# Track frame offsets:
#	150
#	15386
#	27798
#	39923
#	54218
#	74034
#	91473
#	108058
#	120804
#	137198
#	152887
#	168998
#	182429
#
# Disc length: 2658 seconds
#
# Revision: 3
# Processed by: cddbd v1.5.2PL0 Copyright (c) Steve Scherf et al.
# Submitted via: CDex 1.40Beta8
#
DISCID=960a600d
DTITLE=Ελένη Δήμου - Ο έρωτας σε αργές σροφές 
DYEAR=2004
DGENRE=Ελληνικά
TTITLE0=Τα χέρια
TTITLE1=Video
TTITLE2=Μη μου χτυπάς τα μεσάνυχτα την πόρτα
TTITLE3=Μικρή μου μώβ βεντάλια
TTITLE4=Ασ ερχόσουν για λίγο
TTITLE5=Το παράπονο
TTITLE6=Μή γυρίσεις
TTITLE7=Σ΄αγαπώ
TTITLE8=Κλαίς
TTITLE9=Όταν σημάνει η ώρα
TTITLE10=Πόσω σ' αγαπώ
TTITLE11=Αχ ας έβρισκα τα λόγια
TTITLE12=Βαρκαρόλα
EXTD=YEAR: 2004
EXTT0=
EXTT1=
EXTT2=
EXTT3=
EXTT4=
EXTT5=
EXTT6=
EXTT7=
EXTT8=
EXTT9=
EXTT10=
EXTT11=
EXTT12=
PLAYORDER=
